<?xml version="1.0" standalone="no"?>
<!DOCTYPE svg PUBLIC "-//W3C//DTD SVG 20010904//EN"
 "http://www.w3.org/TR/2001/REC-SVG-20010904/DTD/svg10.dtd">
<svg version="1.0" xmlns="http://www.w3.org/2000/svg"
 width="180.000000pt" height="180.000000pt" viewBox="0 0 180.000000 180.000000"
 preserveAspectRatio="xMidYMid meet">
<metadata>
Created by potrace 1.11, written by Peter Selinger 2001-2013
</metadata>
<g transform="translate(0.000000,180.000000) scale(0.100000,-0.100000)"
fill="#000000" stroke="none">
<path d="M329 1791 c23 -6 22 -8 -29 -51 l-54 -45 33 -5 32 -5 -35 -42 c-20
-22 -36 -44 -36 -47 0 -3 11 -6 25 -6 14 0 25 -2 25 -4 0 -2 -13 -36 -30 -74
-16 -39 -30 -73 -30 -76 0 -4 9 -6 21 -6 17 0 19 -4 13 -22 -11 -32 -9 -62 10
-143 32 -136 33 -126 -2 -113 -137 52 -160 -200 -32 -345 41 -47 83 -69 122
-65 29 3 31 0 60 -76 24 -63 43 -92 87 -136 31 -31 67 -64 81 -73 24 -15 21
-16 -78 -16 -111 -1 -154 -15 -199 -63 -44 -47 -53 -88 -53 -238 l0 -140 631
0 631 0 -4 148 c-4 155 -12 186 -62 240 -40 45 -75 56 -189 62 l-108 5 52 40
c74 56 125 125 145 195 16 58 17 58 49 53 82 -13 184 103 205 234 12 70 -3
147 -33 168 -26 18 -68 20 -85 3 -7 -7 -12 -8 -12 -2 0 6 5 15 12 22 8 8 9 15
1 23 -6 6 -7 25 -2 52 4 23 8 68 9 99 0 40 4 60 15 65 13 8 13 14 -2 51 -12
32 -13 48 -6 65 9 18 6 27 -15 50 l-26 28 22 6 c22 5 22 7 6 24 -16 18 -16 19
2 19 14 0 11 6 -16 28 l-34 29 34 7 35 6 -45 30 c-25 17 -44 35 -43 40 2 7
-198 10 -560 9 -309 -1 -551 -4 -538 -8z m924 -239 c72 -78 112 -179 97 -246
-7 -33 -5 -39 16 -53 23 -14 23 -17 9 -33 -13 -14 -13 -19 -3 -23 9 -4 7 -6
-4 -6 -10 -1 -24 12 -33 29 -9 17 -23 30 -32 30 -9 0 -25 8 -36 18 -19 16 -20
16 -14 0 5 -15 3 -16 -18 -6 -20 9 -49 5 -155 -22 -113 -29 -131 -37 -136 -56
-10 -41 -105 -43 -149 -4 -22 20 -181 92 -237 108 -30 8 -40 6 -79 -21 -31
-21 -38 -23 -25 -9 10 12 27 24 37 27 11 4 19 11 19 16 0 6 -7 6 -17 1 -10 -5
-23 -8 -29 -5 -13 4 -60 -44 -51 -53 4 -4 42 -10 84 -14 43 -5 104 -16 137
-26 l58 -19 -138 4 c-101 2 -144 7 -161 18 l-23 15 22 39 c17 31 19 41 8 53
-25 31 11 132 77 214 47 58 61 64 114 48 24 -8 84 -19 134 -25 49 -7 93 -18
97 -24 4 -7 8 -8 8 -3 0 5 6 4 13 -2 9 -8 20 -7 39 2 14 8 54 17 88 21 34 4
98 17 143 30 45 12 85 23 88 24 4 0 27 -21 52 -47z m-13 -351 c16 -5 -9 -9
-75 -13 -55 -3 -101 -4 -103 -2 -5 4 99 22 128 22 14 0 36 -3 50 -7z m-525
-51 c94 -14 105 -18 105 -41 0 -29 -56 -135 -75 -143 -9 -3 -68 -6 -131 -6
-132 0 -175 13 -198 59 -16 30 -22 122 -9 134 10 11 229 8 308 -3z m643 -2
c14 -14 5 -91 -15 -130 -23 -48 -59 -58 -197 -58 l-124 0 -25 30 c-14 16 -33
50 -43 75 -22 59 -12 71 76 83 98 14 314 14 328 0z m-1075 -47 c25 -21 33 -39
40 -86 6 -38 6 -39 -5 -10 -26 72 -87 118 -109 84 -12 -19 -11 -86 1 -94 6 -4
10 12 10 39 0 47 13 59 38 34 16 -16 15 -28 -3 -28 -8 0 -15 -5 -15 -11 0 -7
10 -9 24 -5 34 8 45 -25 17 -53 -20 -20 -25 -35 -22 -71 0 -10 -1 -11 -5 -2
-3 6 -12 12 -20 12 -11 0 -8 -11 13 -40 29 -41 58 -56 93 -47 22 6 46 -25 34
-44 -11 -19 -58 1 -102 44 -52 51 -82 126 -82 205 0 94 37 123 93 73z m1281 7
c23 -32 20 -126 -4 -190 -31 -84 -141 -177 -164 -139 -12 19 12 50 34 44 35
-9 64 6 93 47 21 29 24 40 13 40 -8 0 -17 -6 -20 -12 -4 -9 -5 -8 -5 2 3 36
-2 51 -22 71 -28 28 -17 61 17 53 27 -7 34 10 8 20 -13 5 -14 9 -4 21 24 29
40 17 40 -30 0 -25 5 -45 10 -45 12 0 13 80 1 99 -13 20 -56 6 -79 -27 -11
-15 -25 -44 -32 -65 -17 -53 -25 -38 -11 20 13 52 63 113 92 113 10 0 25 -10
33 -22z m-1190 -64 c11 -42 37 -74 77 -95 32 -16 59 -19 161 -19 147 0 167 9
206 90 25 51 29 55 62 55 33 0 37 -4 66 -59 18 -32 42 -65 55 -72 16 -9 65
-13 149 -13 150 -1 191 15 225 86 11 23 25 42 31 43 13 0 -37 -220 -80 -356
-23 -73 -32 -87 -88 -140 -117 -112 -266 -194 -351 -194 -93 0 -323 128 -390
217 -53 71 -178 513 -138 489 5 -3 12 -18 15 -32z m-70 -101 c-10 -23 -10 -63
1 -87 6 -14 5 -17 -3 -12 -26 16 -26 116 0 116 6 0 7 -7 2 -17z m1180 1 c3 -9
6 -24 6 -34 0 -24 -19 -74 -26 -68 -2 3 0 17 7 31 8 19 9 34 1 56 -11 31 0 45
12 15z m-38 -19 c14 -22 14 -26 -2 -55 -23 -38 -49 -41 -40 -4 4 15 10 39 13
55 7 35 8 35 29 4z m-1091 -45 c7 -41 6 -43 -9 -31 -29 24 -38 49 -25 72 14
28 25 15 34 -41z m383 -499 c20 -10 60 -26 87 -35 46 -15 56 -15 108 -1 32 8
76 24 98 36 23 11 43 18 46 16 2 -3 -2 -19 -11 -35 -23 -44 -78 -62 -194 -62
-113 0 -158 17 -179 69 -15 37 -8 39 45 12z"/>
<path d="M835 926 c-5 -7 -23 -30 -39 -51 l-30 -37 24 -18 c13 -10 37 -26 54
-36 l29 -17 -26 35 c-26 34 -27 36 -12 73 18 41 18 76 0 51z"/>
<path d="M663 676 c11 -8 48 -18 83 -21 95 -11 321 -2 336 13 20 20 4 23 -58
11 -56 -11 -210 -8 -329 6 -45 6 -48 5 -32 -9z"/>
<path d="M808 573 c-10 -2 -18 -8 -18 -13 0 -7 32 -21 55 -24 6 -1 13 -5 16
-9 3 -5 18 -5 32 -1 30 7 37 38 11 48 -17 7 -69 6 -96 -1z"/>
</g>
</svg>
